<svg width="8" height="18" viewBox="0 0 8 18" fill="none" xmlns="http://www.w3.org/2000/svg">
<path d="M0.0799999 0C1.41333 0.136364 2.68 0.204546 3.88 0.204546C5.02667 0.204546 6.26667 0.136364 7.6 0C7.65333 0.0818171 7.68 0.245454 7.68 0.490909C7.68 0.736364 7.65333 0.913637 7.6 1.02273C7.09333 1.02273 6.69333 1.07727 6.4 1.18636C6.10667 1.29545 5.94667 1.39091 5.92 1.47273C5.78667 1.77273 5.70667 2.12727 5.68 2.53636C5.68 2.94545 5.68 3.43636 5.68 4.00909V13.95C5.68 14.55 5.68 15.0545 5.68 15.4636C5.70667 15.8727 5.76 16.1727 5.84 16.3636C5.92 16.5273 6.02667 16.65 6.16 16.7318C6.32 16.7864 6.48 16.8409 6.64 16.8955C6.93333 16.95 7.25333 16.9773 7.6 16.9773C7.65333 17.0864 7.68 17.2636 7.68 17.5091C7.68 17.7545 7.65333 17.9182 7.6 18C5.09333 17.7545 2.58667 17.7545 0.0799999 18C0.0266666 17.9182 0 17.7545 0 17.5091C0 17.2636 0.0266666 17.0864 0.0799999 16.9773C0.64 16.9773 1.05333 16.9227 1.32 16.8136C1.58667 16.6773 1.74667 16.5682 1.8 16.4864C1.93333 16.1591 2 15.3136 2 13.95V4.00909C2 2.7 1.93333 1.85455 1.8 1.47273C1.61333 1.17273 1.04 1.02273 0.0799999 1.02273C0.0266666 0.913637 0 0.736364 0 0.490909C0 0.245454 0.0266666 0.0818171 0.0799999 0Z" fill="#757889"/>
</svg>
