<svg width="18" height="18" viewBox="0 0 18 18" fill="none" xmlns="http://www.w3.org/2000/svg">
<path d="M12.52 4.02685C12.0933 3.16778 11.5333 2.4698 10.84 1.93289C10.1733 1.39597 9.4 1.12752 8.52 1.12752C7.64 1.12752 6.93333 1.34228 6.4 1.77181C5.86667 2.20134 5.44 2.73825 5.12 3.38255C4.53333 4.5906 4.24 6.14765 4.24 8.05369C4.24 10.3893 4.62667 12.349 5.4 13.9329C6.36 15.8658 7.73333 16.8322 9.52 16.8322C10.9867 16.8322 12.08 16.0805 12.8 14.5772C13.4133 13.3423 13.72 11.7987 13.72 9.94631C13.72 7.58389 13.32 5.61074 12.52 4.02685ZM8.96 0C10.1333 0 11.2533 0.241611 12.32 0.724832C13.4133 1.18121 14.3733 1.8255 15.2 2.65772C16.0533 3.46309 16.72 4.41611 17.2 5.51678C17.7067 6.61745 17.96 7.78523 17.96 9.02013C17.96 10.255 17.7067 11.4228 17.2 12.5235C16.72 13.5973 16.0533 14.5503 15.2 15.3825C14.3733 16.1879 13.4133 16.8322 12.32 17.3154C11.2533 17.7718 10.1333 18 8.96 18C6.61333 18 4.54667 17.1275 2.76 15.3825C1.90667 14.5503 1.22667 13.5973 0.72 12.5235C0.24 11.4228 0 10.255 0 9.02013C0 7.78523 0.24 6.61745 0.72 5.51678C1.22667 4.41611 1.90667 3.46309 2.76 2.65772C4.54667 0.885906 6.61333 0 8.96 0Z" fill="#757889"/>
</svg>
