<svg width="16" height="16" viewBox="0 0 16 16" fill="none" xmlns="http://www.w3.org/2000/svg">
<path d="M14.6667 3.81333L11.6 1.24L10.74 2.26L13.8067 4.83333L14.6667 3.81333ZM5.25334 2.26L4.4 1.24L1.33334 3.80667L2.19334 4.82667L5.25334 2.26ZM8 2.66667C4.68667 2.66667 2 5.35333 2 8.66667C2 11.98 4.68 14.6667 8 14.6667C11.3133 14.6667 14 11.98 14 8.66667C14 5.35333 11.3133 2.66667 8 2.66667ZM8 13.3333C5.42 13.3333 3.33334 11.2467 3.33334 8.66667C3.33334 6.08667 5.42 4 8 4C10.58 4 12.6667 6.08667 12.6667 8.66667C12.6667 11.2467 10.58 13.3333 8 13.3333ZM7.02667 9.68667L5.60667 8.26667L4.9 8.97333L7.02 11.0933L11.02 7.09333L10.3133 6.38667L7.02667 9.68667Z" fill="#323232"/>
</svg>
